<mxfile host="65bd71144e">
    <diagram id="nv8lCuP4qw5mV8giyeF8" name="Page-1">
        <mxGraphModel dx="848" dy="471" grid="1" gridSize="10" guides="1" tooltips="1" connect="1" arrows="1" fold="1" page="1" pageScale="1" pageWidth="850" pageHeight="1100" math="0" shadow="0">
            <root>
                <mxCell id="0"/>
                <mxCell id="1" parent="0"/>
                <mxCell id="2" value="Audition&lt;br&gt;belongs_to :role&lt;br&gt;:actor&lt;br&gt;:location&lt;br&gt;:phone&lt;br&gt;:hired&lt;br&gt;:role_id" style="whiteSpace=wrap;html=1;" vertex="1" parent="1">
                    <mxGeometry x="40" y="80" width="240" height="240" as="geometry"/>
                </mxCell>
                <mxCell id="3" value="Roles&lt;br&gt;has_many :auditions&lt;br&gt;:character_name" style="whiteSpace=wrap;html=1;" vertex="1" parent="1">
                    <mxGeometry x="360" y="80" width="240" height="240" as="geometry"/>
                </mxCell>
            </root>
        </mxGraphModel>
    </diagram>
</mxfile>